<?xml version="1.0" encoding="UTF-8"?>
<svg width="132px" height="55px" viewBox="0 0 132 55" version="1.1" xmlns="http://www.w3.org/2000/svg" xmlns:xlink="http://www.w3.org/1999/xlink">
    <title>A66A947D-0C7C-4387-840E-9BC94E026152</title>
    <g id="desgin-6.4.22" stroke="none" stroke-width="1" fill="none" fill-rule="evenodd">
        <g id="Register-by-Email-6.4" transform="translate(-236.000000, -25.000000)" fill-rule="nonzero">
            <g id="main_logo" transform="translate(236.000000, 25.000000)">
                <rect id="Rectangle" fill="#FFFFFF" x="129" y="11" width="3" height="23"></rect>
                <g id="Group">
                    <path d="M91.7317187,23.3105498 L91.7317187,23.3105498 C91.7317187,22.6017831 91.9623845,21.8142645 92.2699388,21.1842496 C93.5001562,18.5854383 96.6525882,17.5616642 99.1899115,18.9004458 C99.651243,19.1367013 100.112574,19.4517088 100.420129,19.8454681 L100.497017,19.9242199 C101.342792,20.7904903 101.881012,21.8930163 101.957901,23.0742942 L101.957901,33.7845468 L105.187221,33.7845468 L105.187221,23.7043091 L105.187221,23.7043091 C105.187221,23.6255572 105.187221,23.6255572 105.187221,23.5468053 C105.187221,23.5468053 105.187221,23.5468053 105.187221,23.4680535 L105.187221,23.4680535 C105.187221,18.7429421 101.496569,14.884101 96.8832539,14.884101 C92.8081589,14.884101 89.271284,17.9554235 88.6561753,22.0505201 L88.6561753,22.1292719 C88.6561753,22.1292719 88.6561753,22.1292719 88.6561753,22.2080238 C88.5792867,22.6017831 88.5792867,22.9955423 88.5792867,23.3893016 C88.5792867,23.4680535 88.5792867,23.5468053 88.5792867,23.6255572 L88.5792867,33.7845468 L91.8086073,33.7845468 L91.8086073,30.3194651 L91.7317187,23.3105498 Z" id="Path" fill="#FFFFFF"></path>
                    <path d="M116.720509,30.3982169 C113.491188,30.3982169 110.876976,27.7206538 110.876976,24.4130758 C110.876976,21.1054978 113.491188,18.4279346 116.720509,18.4279346 C119.949829,18.4279346 122.564041,21.1054978 122.564041,24.4130758 L122.564041,24.4130758 C122.564041,27.6419019 119.949829,30.3982169 116.720509,30.3982169 M116.720509,14.884101 C111.645862,14.884101 107.493879,19.1367013 107.493879,24.3343239 C107.493879,25.5156018 107.724544,26.6181278 108.108987,27.6419019 C108.262765,28.0356612 108.416542,28.3506686 108.570319,28.8231798 C108.954762,29.5319465 109.416093,30.2407132 110.031202,30.8707281 L110.108091,30.9494799 L110.184979,31.0282318 C110.723199,31.5794948 111.338308,32.0520059 111.953417,32.4457652 C112.645414,32.9182764 113.491188,33.2332838 114.260074,33.5482912 C116.028512,34.0995542 117.950726,34.0208024 119.719164,33.3907875 C120.564938,33.1545319 121.333824,32.6820208 122.025821,32.2095097 C122.10271,32.2095097 122.10271,32.1307578 122.179598,32.1307578 L122.179598,32.1307578 C122.333376,31.9732541 122.487153,31.8945022 122.64093,31.7369985 L122.64093,33.2332838 C122.64093,33.2332838 122.64093,33.4695394 122.64093,33.5482912 L122.64093,33.6270431 L125.870251,33.6270431 L125.870251,33.3907875 C125.870251,33.3907875 126.100916,25.7518574 125.947139,23.1530461 C125.639585,18.5066865 121.410713,14.884101 116.720509,14.884101" id="Shape" fill="#FFFFFF"></path>
                    <path d="M21.5324405,13.7028232 C21.4555519,13.8603269 21.3017747,13.9390788 21.3017747,13.9390788 C21.1479975,13.8603269 21.071109,13.7028232 21.071109,13.7028232 C20.8404432,13.230312 20.8404432,12.679049 21.071109,12.2065379 C21.1479975,12.0490342 21.2248861,11.9702823 21.3017747,11.9702823 C21.4555519,12.0490342 21.5324405,12.127786 21.5324405,12.2065379 C21.8399948,12.6002972 21.8399948,13.230312 21.5324405,13.7028232 M22.3013263,10.9465082 C20.686666,9.84398217 17.8417884,9.45022288 13.9973591,9.84398217 C13.9204705,9.84398217 13.9204705,9.84398217 13.8435819,9.84398217 L13.7666934,13.8603269 C13.8435819,13.8603269 13.8435819,13.8603269 13.9204705,13.8603269 C15.2275765,13.7028232 16.0733509,13.6240713 16.611571,13.781575 C16.9960139,14.7265973 17.7648998,15.435364 18.6875628,15.7503715 C19.8408916,16.0653789 21.1479975,16.1441308 22.6857692,15.986627 C24.2235409,15.7503715 24.9155382,15.1991085 24.9155382,14.1753343 C24.9155382,13.1515602 24.0697638,12.0490342 22.3013263,10.9465082" id="Shape" fill="#00D9C2"></path>
                    <path d="M9.76848694,34.8870728 C6.38538919,35.9895988 4.15562022,38.2734027 2.92540286,41.7384844 L2.84851427,41.97474 C2.84851427,42.2109955 2.92540286,42.1322437 3.07918003,41.8959881 C5.46272617,39.9271917 7.61560655,38.5884101 9.69159835,37.8008915 L9.84537552,37.7221397 L9.76848694,34.8870728 C9.84537552,34.808321 9.84537552,34.808321 9.76848694,34.8870728" id="Path" fill="#00D9C2"></path>
                    <path d="M10.8449271,43.1560178 C10.8449271,43.4710253 11.0755929,43.8647845 11.5369244,44.4160475 C11.8444787,44.8098068 12.1520331,45.1248143 12.3826988,45.1248143 C12.536476,45.1248143 12.6133646,45.1248143 12.6133646,44.9673105 L12.8440303,24.5705795 L10.69115,24.3343239 L10.8449271,43.1560178 Z" id="Path" fill="#00D9C2"></path>
                    <path d="M15.4582422,20.8692422 L9.61470977,19.8454681 C7.84627231,19.5304606 6.61605495,19.1367013 6.00094626,18.9004458 C4.84761749,18.3491828 4.61695173,17.7191679 5.38583758,16.7741456 C6.15472343,16.0653789 7.46182938,15.3566122 9.38404401,14.7265973 L9.30715543,10.6315007 C5.84716909,11.576523 3.2329572,12.9940565 1.31074257,15.1203566 C-0.9190264,17.640416 -0.303917718,19.7667162 3.15606861,21.6567608 C5.00139466,22.6805349 8.07693806,23.3105498 12.3826988,23.7830609 C15.4582422,24.0193165 17.534234,24.9643388 18.6106742,26.6181278 C19.764003,28.1931649 19.3026715,29.7682021 17.4573455,31.4219911 C16.9960139,31.8157504 15.688908,32.5245171 13.459139,33.4695394 L13.3822504,36.7771174 C16.4577938,35.5958395 18.5337856,34.6508172 19.6102258,33.7845468 C22.3782149,31.7369985 23.3777665,29.3744428 22.6857692,26.5393759 C21.8399948,23.4680535 19.5333373,21.6567608 15.4582422,20.8692422" id="Path" fill="#00D9C2"></path>
                    <path d="M14.381802,2.75631501 C14.381802,1.26002972 13.1515847,0 11.6907016,0 C10.1529299,0 8.99960108,1.18127786 8.99960108,2.75631501 C8.99960108,3.85884101 9.61470977,4.8038633 10.5373728,5.27637444 L10.6142614,18.9791976 L12.8440303,19.2942051 L12.9978075,5.27637444 C13.8435819,4.8038633 14.381802,3.85884101 14.381802,2.75631501" id="Path" fill="#00D9C2"></path>
                    <path d="M30.2208506,20.0817236 C31.3741794,18.9004458 32.8350625,18.3491828 34.3728342,18.3491828 C35.9874945,18.3491828 37.4483776,18.9791976 38.5248178,20.0817236 C39.2937036,20.7904903 39.8319237,21.8142645 40.1394781,22.9167905 L28.6830789,22.9167905 C28.9137446,21.8930163 29.4519647,20.8692422 30.2208506,20.0817236 M38.3710406,28.8231798 C37.2946004,29.9257058 35.8337173,30.4769688 34.3728342,30.4769688 C32.7581739,30.4769688 31.2972908,29.8469539 30.2208506,28.7444279 C29.5288533,28.0356612 29.0675218,27.1693908 28.8368561,26.4606241 L43.2919101,26.4606241 C44.3683503,21.4205052 41.2159183,16.4591382 36.2950488,15.3566122 C31.3741794,14.2540862 26.5301985,17.4829123 25.4537583,22.5230312 C24.3773181,27.5631501 27.5297501,32.5245171 32.4506196,33.6270431 C36.7563803,34.5720654 41.0621411,32.2882615 42.75369,28.1144131 L39.1399265,28.1144131 L38.3710406,28.8231798 Z" id="Shape" fill="#00D9C2"></path>
                    <path d="M50.8269914,20.0817236 C51.9803202,18.9004458 53.4412033,18.3491828 54.978975,18.3491828 C56.5936353,18.3491828 58.0545184,18.9791976 59.1309586,20.0817236 C59.8998445,20.7904903 60.4380646,21.8142645 60.7456189,22.9167905 L49.2123311,22.9167905 C49.5198855,21.8930163 49.981217,20.8692422 50.8269914,20.0817236 M58.9771814,28.8231798 C57.9007412,29.9257058 56.4398581,30.4769688 54.978975,30.4769688 C53.3643147,30.4769688 51.9034316,29.8469539 50.8269914,28.7444279 C50.1349941,28.0356612 49.6736626,27.1693908 49.4429969,26.4606241 L63.8980509,26.4606241 C64.9744911,21.4205052 61.8220591,16.4591382 56.9011896,15.3566122 C51.9803202,14.1753343 47.1363393,17.4041605 46.0598991,22.4442793 C44.9834589,27.4843982 48.1358909,32.2882615 53.0567604,33.3907875 C57.3625211,34.3358098 61.6682819,32.0520059 63.3598308,27.8781575 L59.7460673,27.8781575 L58.9771814,28.8231798 Z" id="Shape" fill="#00D9C2"></path>
                    <path d="M76.2771131,30.5557207 C73.0477925,30.5557207 70.356692,27.8781575 70.356692,24.4918276 C70.356692,21.1842496 72.9709039,18.4279346 76.2771131,18.4279346 C79.5833223,18.4279346 82.1975341,21.1054978 82.1975341,24.4918276 L82.1975341,24.4918276 C82.1206456,27.7994056 79.5064337,30.5557207 76.2771131,30.5557207 M76.2771131,14.9628529 C71.2024665,14.9628529 67.0504829,19.2154532 67.0504829,24.4130758 C67.0504829,29.6106984 71.2024665,33.8632987 76.2771131,33.8632987 C78.4299935,33.8632987 80.5059853,33.1545319 82.1975341,31.7369985 L82.1975341,32.9182764 L82.1975341,32.9182764 C82.1975341,36.2258544 79.5833223,38.9821694 76.3540017,38.9821694 C73.6629012,38.9821694 71.2793551,37.0921248 70.5873578,34.4145617 L67.20426,34.4145617 C67.9731459,39.5334324 72.6633496,43.1560178 77.7379962,42.3684993 C82.043757,41.6597325 85.2730776,38.0371471 85.5037433,33.5482912 L85.5037433,23.8618128 C85.196189,18.9004458 81.121094,14.9628529 76.2771131,14.9628529" id="Shape" fill="#FFFFFF"></path>
                    <path d="M23.2239893,47.1723626 C23.2239893,46.0698366 22.5319921,45.3610698 21.4555519,45.3610698 L19.3795601,45.3610698 L19.3795601,49.0624071 L21.4555519,49.0624071 C22.4551035,48.9836553 23.2239893,48.2748886 23.2239893,47.1723626 M23.9928752,47.1723626 C23.9928752,48.6686478 22.8395464,49.8499257 21.3786633,49.8499257 L19.3026715,49.8499257 L19.3026715,53 L18.5337856,53 L18.5337856,44.4947994 L21.4555519,44.4947994 C22.916435,44.4947994 23.9928752,45.5973254 23.9928752,47.1723626" id="Shape" fill="#FFFFFF"></path>
                    <path d="M29.8364077,49.9286776 C29.8364077,48.6686478 28.7599675,47.5661218 27.5297501,47.5661218 C26.2995327,47.5661218 25.2230926,48.6686478 25.2230926,49.9286776 C25.2230926,51.1887073 26.2995327,52.2912333 27.5297501,52.2912333 C28.8368561,52.2912333 29.8364077,51.2674591 29.8364077,49.9286776 L29.8364077,49.9286776 M30.6821821,46.8573551 L30.6821821,52.8424963 L29.9132962,52.8424963 L29.9132962,51.6612184 C29.3750761,52.448737 28.5293017,53 27.5297501,52.9212481 C25.8382012,52.9212481 24.4542067,51.5037147 24.4542067,49.7711738 C24.4542067,48.038633 25.8382012,46.6210996 27.5297501,46.6210996 C28.5293017,46.6210996 29.3750761,47.0936107 29.9132962,47.8811293 L29.9132962,46.6998514 L30.6821821,46.8573551 L30.6821821,46.8573551 Z" id="Shape" fill="#FFFFFF"></path>
                    <path d="M33.6808369,47.7236256 L33.6808369,51.346211 C33.6808369,52.3699851 34.219057,52.2912333 35.3723858,52.2124814 L35.3723858,52.9212481 C33.8346141,53.1575037 32.9888397,52.7637444 32.9888397,51.2674591 L32.9888397,47.6448737 L31.7586223,47.6448737 L31.7586223,46.936107 L32.9888397,46.936107 L32.9888397,45.5185736 L33.7577255,45.282318 L33.7577255,46.936107 L35.4492744,46.936107 L35.4492744,47.6448737 L33.6808369,47.7236256 L33.6808369,47.7236256 Z" id="Path" fill="#FFFFFF"></path>
                    <path d="M36.7024686,46.8573551 L37.5479441,46.8573551 L37.5479441,52.8424963 L36.7024686,52.8424963 L36.7024686,46.8573551 Z M36.448826,45.0460624 C36.448826,44.731055 36.7024686,44.4160475 37.1252064,44.4160475 C37.4633965,44.4160475 37.8015867,44.6523031 37.8015867,45.0460624 C37.8015867,45.4398217 37.4633965,45.6760773 37.1252064,45.6760773 L37.1252064,45.6760773 C36.7870162,45.5973254 36.448826,45.4398217 36.448826,45.0460624 L36.448826,45.0460624" id="Shape" fill="#FFFFFF"></path>
                    <path d="M39.5243694,49.5349183 L43.9070187,49.5349183 C43.7532416,48.2748886 42.75369,47.48737 41.8310269,47.48737 C40.6008096,47.48737 39.6781466,48.3536404 39.5243694,49.5349183 M44.6759046,49.9286776 C44.6759046,50.0861813 44.6759046,50.1649331 44.6759046,50.243685 L39.5243694,50.243685 C39.6781466,51.4249629 40.6008096,52.2124814 41.8310269,52.2124814 C42.75369,52.2124814 43.4456872,51.7399703 43.7532416,51.1887073 L44.4452388,51.5824666 C43.9839073,52.3699851 43.0612443,52.9212481 41.8310269,52.9212481 C39.9857009,52.9212481 38.7554835,51.5824666 38.7554835,49.7711738 C38.7554835,48.038633 39.9857009,46.6210996 41.8310269,46.6210996 C43.5225758,46.7786033 44.6759046,48.3536404 44.6759046,49.9286776" id="Shape" fill="#FFFFFF"></path>
                    <path d="M50.9807686,49.2199108 L50.9807686,52.8424963 L50.2118827,52.8424963 L50.2118827,49.2199108 C50.2118827,48.1173848 49.596774,47.5661218 48.5972224,47.5661218 C47.5976708,47.5661218 46.6750078,48.1961367 46.6750078,49.7711738 L46.6750078,52.9212481 L45.906122,52.9212481 L45.906122,46.936107 L46.6750078,46.936107 L46.6750078,47.8811293 C47.1363393,47.1723626 47.8283366,46.7786033 48.674111,46.7786033 C50.0581056,46.7786033 50.9807686,47.7236256 50.9807686,49.2199108" id="Path" fill="#FFFFFF"></path>
                    <path d="M53.8256462,47.7236256 L53.8256462,51.346211 C53.8256462,52.3699851 54.3638663,52.2912333 55.5171951,52.2124814 L55.5171951,52.9212481 C53.9025348,53.1575037 53.0567604,52.7637444 53.0567604,51.2674591 L53.0567604,47.6448737 L51.826543,47.6448737 L51.826543,46.936107 L53.0567604,46.936107 L53.0567604,45.5185736 L53.8256462,45.282318 L53.8256462,46.936107 L55.5171951,46.936107 L55.5171951,47.6448737 L53.8256462,47.7236256 L53.8256462,47.7236256 Z" id="Path" fill="#FFFFFF"></path>
                    <path d="M56.839619,46.8573551 L57.6850944,46.8573551 L57.6850944,52.8424963 L56.839619,52.8424963 L56.839619,46.8573551 Z M56.6705239,45.0460624 C56.6705239,44.731055 56.9241665,44.4160475 57.3469042,44.4160475 C57.6850944,44.4160475 58.0232846,44.6523031 58.0232846,45.0460624 C58.0232846,45.4398217 57.6850944,45.6760773 57.3469042,45.6760773 C56.9241665,45.5973254 56.6705239,45.4398217 56.6705239,45.0460624 L56.6705239,45.0460624" id="Shape" fill="#FFFFFF"></path>
                </g>
                <polygon id="Path" fill="#FFFFFF" points="65 47 62.52 53 61.48 53 59 47 59.96 47 62.04 52.2207792 64.2 47"></polygon>
                <g id="Group" transform="translate(66.000000, 45.000000)" fill="#FFFFFF">
                    <path d="M0.1640625,2.25858288 L0.984375,2.25858288 L0.984375,7.7957538 L0.1640625,7.7957538 L0.1640625,2.25858288 Z M0,0.582860097 C0,0.291430049 0.24609375,0 0.65625,0 C0.984375,0 1.3125,0.218572536 1.3125,0.582860097 C1.3125,0.947147658 0.984375,1.16572019 0.65625,1.16572019 C0.24609375,1.09286268 0,0.947147658 0,0.582860097 L0,0.582860097" id="Shape"></path>
                    <path d="M3.94936709,3.06001551 L3.94936709,6.41146107 C3.94936709,7.35860873 4.48101266,7.28575122 5.62025316,7.2128937 L5.62025316,7.86861131 C4.10126582,8.08718385 3.26582278,7.72289629 3.26582278,6.33860356 L3.26582278,2.987158 L2.05063291,2.987158 L2.05063291,2.33144039 L3.26582278,2.33144039 L3.26582278,1.02000517 L4.02531646,0.801432634 L4.02531646,2.33144039 L5.69620253,2.33144039 L5.69620253,2.987158 L3.94936709,3.06001551 L3.94936709,3.06001551 Z" id="Path"></path>
                    <path d="M12,2.25858288 L9.49367089,8.30575639 C9.03797468,9.39861907 8.20253165,10.1271942 7.13924051,9.98147917 L7.13924051,9.32576156 C7.89873418,9.39861907 8.35443038,8.88861648 8.73417722,8.23289887 L8.88607595,7.94146883 L6.30379747,2.4042979 L7.06329114,2.4042979 L9.18987342,7.06717868 L11.0886076,2.4042979 L12,2.25858288 Z" id="Path"></path>
                </g>
                <polygon id="Path" fill="#FFFFFF" points="79 55 78 55 78.6666667 53 80 53"></polygon>
                <g id="Group" transform="translate(84.000000, 44.000000)" fill="#FFFFFF">
                    <path d="M5.33526012,5.80407788 C5.33526012,4.49611667 4.28323699,3.35165061 3.08092486,3.35165061 C1.87861272,3.35165061 0.826589595,4.49611667 0.826589595,5.80407788 C0.826589595,7.11203909 1.87861272,8.25650515 3.08092486,8.25650515 C4.3583815,8.25650515 5.33526012,7.19378667 5.33526012,5.80407788 L5.33526012,5.80407788 M6.0867052,0.163495151 L6.0867052,8.91048576 L5.33526012,8.91048576 L5.33526012,7.68427212 C4.80924855,8.50174788 3.98265896,9.07398091 3.00578035,8.99223333 C1.35260116,8.99223333 0,7.52077697 0,5.7223303 C0,4.00563121 1.35260116,2.45242727 3.00578035,2.45242727 L3.00578035,2.45242727 C3.98265896,2.45242727 4.80924855,2.94291273 5.33526012,3.76038848 L5.33526012,0 L6.0867052,0.163495151 Z" id="Shape"></path>
                    <path d="M8.19075145,5.39534 L12.4739884,5.39534 C12.3236994,4.08737879 11.3468208,3.26990303 10.4450867,3.26990303 C9.16763006,3.26990303 8.34104046,4.16912636 8.19075145,5.39534 M13.2254335,5.80407788 C13.2254335,5.96757303 13.2254335,6.04932061 13.2254335,6.13106818 L8.19075145,6.13106818 C8.34104046,7.35728182 9.24277457,8.17475757 10.4450867,8.17475757 C11.3468208,8.17475757 12.0231214,7.68427212 12.3236994,7.11203909 L13,7.52077697 C12.5491329,8.33825273 11.6473988,8.91048576 10.4450867,8.91048576 C8.6416185,8.91048576 7.43930636,7.52077697 7.43930636,5.64058273 C7.43930636,3.84213606 8.6416185,2.3706797 10.4450867,2.3706797 C12.0982659,2.53417485 13.2254335,4.16912636 13.2254335,5.80407788" id="Shape"></path>
                    <path d="M15.4797688,2.45242727 L15.4797688,2.69767 L17.132948,2.69767 L17.132948,3.43339818 L15.4797688,3.43339818 L15.4797688,8.82873818 L14.7283237,8.82873818 L14.7283237,3.43339818 L13.7514451,3.43339818 L13.7514451,2.69767 L14.7283237,2.69767 L14.7283237,2.45242727 C14.7283237,0.817475757 15.5549133,-0.0817475757 17.132948,0.0817475757 L17.132948,0.817475757 C16.0057803,0.735728182 15.4797688,1.22621364 15.4797688,2.45242727" id="Path"></path>
                    <path d="M17.9900415,2.61592242 L18.8431665,2.61592242 L18.8431665,8.82873818 L17.9900415,8.82873818 L17.9900415,2.61592242 Z M17.734104,0.735728182 C17.734104,0.408737879 17.9900415,0.0817475757 18.416604,0.0817475757 C18.8431665,0.0817475757 19.099104,0.326990303 19.099104,0.735728182 C19.099104,1.14446606 18.757854,1.38970879 18.416604,1.38970879 L18.416604,1.38970879 C17.9900415,1.30796121 17.734104,1.14446606 17.734104,0.735728182 L17.734104,0.735728182" id="Shape"></path>
                    <path d="M25.1734104,5.0683497 L25.1734104,8.82873818 L24.4219653,8.82873818 L24.4219653,5.0683497 C24.4219653,3.92388364 23.8208092,3.35165061 22.8439306,3.35165061 C21.867052,3.35165061 20.9653179,4.00563121 20.9653179,5.64058273 L20.9653179,8.91048576 L20.2138728,8.91048576 L20.2138728,2.69767 L20.9653179,2.69767 L20.9653179,3.67864091 C21.416185,2.94291273 22.0924855,2.53417485 22.9190751,2.53417485 C24.3468208,2.53417485 25.1734104,3.51514576 25.1734104,5.0683497" id="Path"></path>
                    <path d="M27.1271676,5.39534 L31.4104046,5.39534 C31.2601156,4.08737879 30.283237,3.26990303 29.3815029,3.26990303 C28.0289017,3.26990303 27.2023121,4.16912636 27.1271676,5.39534 M32.1618497,5.80407788 C32.1618497,5.96757303 32.1618497,6.04932061 32.1618497,6.13106818 L27.1271676,6.13106818 C27.2774566,7.35728182 28.1791908,8.17475757 29.3815029,8.17475757 C30.283237,8.17475757 30.9595376,7.68427212 31.2601156,7.11203909 L31.9364162,7.52077697 C31.4855491,8.33825273 30.583815,8.91048576 29.3815029,8.91048576 C27.5780347,8.91048576 26.3757225,7.52077697 26.3757225,5.64058273 C26.3757225,3.84213606 27.5780347,2.3706797 29.3815029,2.3706797 C31.0346821,2.53417485 32.1618497,4.16912636 32.1618497,5.80407788" id="Shape"></path>
                    <path d="M38.2485549,5.80407788 C38.2485549,4.49611667 37.1965318,3.35165061 35.9942197,3.35165061 C34.7919075,3.35165061 33.7398844,4.49611667 33.7398844,5.80407788 C33.7398844,7.11203909 34.7919075,8.25650515 35.9942197,8.25650515 C37.1965318,8.25650515 38.1734104,7.19378667 38.2485549,5.80407788 L38.2485549,5.80407788 M39,0.163495151 L39,8.91048576 L38.3236994,8.91048576 L38.3236994,7.68427212 C37.7976879,8.50174788 36.9710983,9.07398091 35.9942197,8.99223333 C34.3410405,8.99223333 32.9884393,7.52077697 32.9884393,5.7223303 C32.9884393,4.00563121 34.3410405,2.45242727 35.9942197,2.45242727 C36.9710983,2.45242727 37.7976879,2.94291273 38.3236994,3.76038848 L38.3236994,0 L39,0.163495151 Z" id="Shape"></path>
                </g>
            </g>
        </g>
    </g>
</svg>